<?xml version="1.0" encoding="UTF-8"?>
<svg xmlns="http://www.w3.org/2000/svg" xmlns:xlink="http://www.w3.org/1999/xlink" width="48px" height="48px" viewBox="15 0 5 40" version="1.1">
<g id="surface1">
<path style=" stroke:none;fill-rule:nonzero;fill:#04d2e9;fill-opacity:1;" d="M 29.503906 28.589844 L 30.359375 28.589844 C 30.359375 31.089844 29.953125 32.910156 29.148438 34.050781 C 28.339844 35.1875 27.320312 35.757812 26.085938 35.757812 C 25.085938 35.757812 24.128906 35.386719 23.210938 34.644531 C 22.292969 33.898438 21.472656 31.882812 20.742188 28.589844 L 18.703125 19.378906 L 11.628906 35.425781 L 7.140625 35.425781 L 17.300781 13.539062 C 16.765625 10.707031 16.113281 8.609375 15.355469 7.25 C 14.59375 5.886719 13.652344 5.207031 12.53125 5.207031 C 11.628906 5.207031 10.84375 5.546875 10.179688 6.226562 C 9.515625 6.910156 9.136719 7.976562 9.039062 9.433594 L 8.1875 9.433594 C 8.234375 7.105469 8.699219 5.246094 9.585938 3.855469 C 10.472656 2.460938 11.582031 1.757812 12.910156 1.742188 C 13.765625 1.742188 14.570312 2.089844 15.332031 2.785156 C 16.089844 3.484375 16.753906 4.683594 17.324219 6.394531 C 17.894531 8.105469 18.773438 11.632812 19.960938 16.980469 L 21.644531 24.507812 C 22.328125 27.625 23.039062 29.707031 23.78125 30.75 C 24.527344 31.792969 25.429688 32.324219 26.488281 32.339844 C 28.261719 32.339844 29.265625 31.089844 29.503906 28.589844 Z M 29.503906 28.589844 "/>
</g>
</svg>
